<?xml version="1.0" standalone="no"?>
<!DOCTYPE svg PUBLIC "-//W3C//DTD SVG 20010904//EN"
 "http://www.w3.org/TR/2001/REC-SVG-20010904/DTD/svg10.dtd">
<svg version="1.0" xmlns="http://www.w3.org/2000/svg"
 width="512.000000pt" height="512.000000pt" viewBox="0 0 512.000000 512.000000"
 preserveAspectRatio="xMidYMid meet">
<metadata>
Created by potrace 1.14, written by Peter Selinger 2001-2017
</metadata>
<g transform="translate(0.000000,512.000000) scale(0.100000,-0.100000)"
fill="#000000" stroke="none">
<path d="M2940 3380 l0 -630 110 0 110 0 0 280 0 280 215 0 215 0 0 -280 0
-280 115 0 115 0 -2 628 -3 627 -112 3 -113 3 0 -256 0 -255 -215 0 -215 0 0
255 0 255 -110 0 -110 0 0 -630z"/>
<path d="M1360 3847 c0 -77 3 -97 18 -109 9 -8 127 -86 262 -173 135 -87 251
-163 257 -169 10 -9 -54 -54 -262 -190 l-275 -178 0 -99 c0 -55 3 -99 7 -99 4
0 169 107 365 238 l357 237 1 83 0 83 -356 234 c-195 129 -359 235 -365 235
-5 0 -9 -42 -9 -93z"/>
<path d="M1320 1631 l0 -631 204 0 c139 0 229 5 283 15 209 40 348 175 409
395 26 91 26 347 1 440 -55 205 -180 331 -382 386 -44 12 -122 18 -287 21
l-228 6 0 -632z m458 424 c76 -23 144 -82 181 -157 41 -84 55 -176 48 -312 -9
-193 -66 -302 -188 -365 -59 -29 -77 -34 -173 -38 l-106 -6 0 447 0 446 93 0
c54 0 115 -6 145 -15z"/>
<path d="M3318 2011 c-46 -15 -87 -51 -109 -93 -31 -61 -24 -161 15 -213 62
-81 189 -98 265 -37 56 45 75 85 75 159 0 54 -5 69 -30 105 -16 23 -43 50 -61
60 -36 22 -116 31 -155 19z"/>
<path d="M3332 1348 c-64 -14 -118 -70 -127 -132 -10 -64 7 -117 50 -155 34
-30 89 -51 133 -51 26 0 27 -9 6 -80 -20 -66 -94 -144 -176 -184 l-56 -27 25
-57 c13 -31 28 -61 33 -66 12 -12 134 47 197 96 107 82 173 222 173 369 0 104
-15 169 -51 219 -44 61 -123 87 -207 68z"/>
</g>
</svg>
